<svg width="1523" height="1369" viewBox="0 0 1523 1369" fill="none" xmlns="http://www.w3.org/2000/svg">
<path fill-rule="evenodd" clip-rule="evenodd" d="M378.981 630.916L379.874 978.229L413.135 997.241C431.428 1007.7 484.208 1038.03 530.423 1064.64C576.638 1091.26 617.206 1114.08 620.578 1115.35C626.292 1117.5 626.705 1112.69 626.705 1043.85V970.033L615.326 964.238C582.807 947.67 536.715 917.818 522.861 904.352C514.234 895.97 503.741 881.674 499.543 872.589C492.061 856.385 491.89 852.558 490.913 676.622C490.367 577.932 491.154 497.199 492.663 497.224C494.176 497.245 521.408 520.304 553.181 548.465C655.869 639.477 778.501 747.358 786.55 753.759C794.35 759.963 794.711 759.714 856.713 704.741C984.526 591.422 1093.39 497.182 1096.48 497.182C1098.36 497.182 1099.24 569.672 1098.64 674.871L1097.61 852.561L1087.83 872.484C1074.54 899.531 1049.01 921.722 1001.98 947.096L963.043 968.103L962.927 1042.51C962.868 1083.43 963.747 1116.91 964.884 1116.91C966.022 1116.91 1015.26 1089.15 1074.3 1055.22C1133.33 1021.28 1188.33 989.706 1196.52 985.043L1211.4 976.563V630.083V283.604L1166.76 283.614L1122.12 283.621L1034.59 361.178C986.448 403.834 916.53 466.458 879.211 500.343C841.896 534.229 807.235 565.302 802.186 569.392L793.009 576.832L707 499.366C659.696 456.763 586.193 390.785 543.658 352.754L466.328 283.604H422.206H378.088L378.981 630.916ZM274.073 584.517C197.166 620.899 173.302 717.941 219.556 806.176C240.665 846.441 290.752 885.872 331.733 894.493L343.112 896.884V858.377V819.87L330.917 812.335C301.746 794.304 280.06 754.995 280.126 720.255C280.161 700.28 291.575 671.461 303.727 660.663C310.344 654.781 311.78 654.722 323.908 659.788C331.089 662.788 338.347 665.243 340.038 665.243C341.729 665.243 343.112 644.76 343.112 619.726V574.21L319.479 574.213C300.594 574.213 291.47 576.286 274.073 584.517ZM1246.41 619.278C1246.41 644.557 1247.14 665.243 1248.04 665.243C1248.94 665.243 1255.43 662.498 1262.47 659.14L1275.26 653.041L1286.66 666.227C1319.24 703.915 1309.52 765.789 1264.87 804.94L1246.5 821.05L1246.45 858.755L1246.41 896.46L1256.04 894.388C1261.33 893.246 1277.13 886.678 1291.14 879.791C1364.88 843.535 1407.4 746.427 1383.36 669.182C1365.18 610.759 1327.16 578.131 1273.54 574.931L1246.41 573.31V619.278ZM570.777 754.291C561.097 779.745 571.807 824.064 592.152 842.765C603.811 853.479 623.981 861.314 639.911 861.314C653.867 861.314 678.427 848.199 690.93 834.068C697.253 826.925 697.162 826.445 686.648 811.159C664.08 778.359 624.114 751.616 590.909 747.096C575.273 744.967 574.17 745.363 570.777 754.291ZM973.235 753.895C938.139 768.335 910.816 791.488 896.342 819.051C892.187 826.96 892.981 828.606 907.623 842.439C931.753 865.239 957.479 867.176 986.479 848.37C1012.7 831.368 1029.86 782.676 1019.25 755.401C1014.47 743.108 1000.56 742.653 973.235 753.895ZM726.96 942.099C715.988 950.73 714.944 963.562 724.443 973.061C729.751 978.369 734.323 979.367 746.325 977.841C754.672 976.78 763.47 974.357 765.876 972.456C777.969 962.901 762.115 934.841 744.624 934.841C739.981 934.841 732.033 938.108 726.96 942.099ZM824.362 943.437C809.139 958.657 815.396 975.533 837.593 979.136C855.256 982 868.284 973.569 868.284 959.27C868.284 936.543 841.066 926.729 824.362 943.437ZM868.284 1079.08C816.068 1091.93 773.48 1091.22 700.229 1076.32L687.975 1073.82L694.977 1081.77C706.923 1095.32 729.6 1109.11 753.037 1117.06C783.052 1127.25 821.687 1125.22 848.342 1112.06C866.537 1103.08 899.595 1076.92 896.293 1074.12C895.331 1073.3 882.726 1075.53 868.284 1079.08Z" fill="#F2F2F2"/>
</svg>
